<?xml version="1.0" standalone="no"?>
<!DOCTYPE svg PUBLIC "-//W3C//DTD SVG 20010904//EN"
 "http://www.w3.org/TR/2001/REC-SVG-20010904/DTD/svg10.dtd">
<svg version="1.0" xmlns="http://www.w3.org/2000/svg"
 width="901.000000pt" height="901.000000pt" viewBox="0 0 901.000000 901.000000"
 preserveAspectRatio="xMidYMid meet">
<metadata>
Created by potrace 1.11, written by Peter Selinger 2001-2013
</metadata>
<g transform="translate(0.000000,901.000000) scale(0.100000,-0.100000)"
fill="#000000" stroke="none">
<path d="M0 5336 l0 -676 25 -1 c32 0 371 0 433 0 l47 1 0 216 0 217 115 3
c127 3 317 13 340 18 8 1 38 6 65 10 52 8 168 51 193 70 141 112 187 208 177
376 -12 210 -138 348 -375 410 -80 21 -111 22 -552 27 l-468 5 0 -676z m819
344 c97 -11 165 -34 190 -64 18 -22 18 -79 0 -112 -16 -30 -69 -60 -122 -68
-21 -3 -114 -9 -206 -12 l-169 -6 1 134 c0 73 4 135 8 138 11 8 192 1 298 -10z"/>
<path d="M1485 5343 c1 -368 2 -670 3 -673 1 -3 269 -5 595 -5 l593 0 1 163 0
162 -26 1 c-14 0 -178 1 -363 1 l-338 1 0 508 0 509 -233 0 -234 0 2 -667z"/>
<path d="M3126 6002 c-4 -7 -157 -552 -172 -614 -2 -10 -6 -26 -8 -35 -7 -31
-96 -355 -117 -427 -12 -38 -22 -78 -25 -89 -2 -11 -10 -43 -18 -71 -8 -28
-16 -62 -18 -75 l-3 -24 234 -1 c142 -1 239 3 247 9 6 6 19 36 28 68 9 31 23
82 32 112 l15 55 245 -3 c134 -2 245 -5 247 -8 2 -2 20 -56 41 -119 l38 -115
243 1 c135 0 247 3 250 6 3 3 -3 34 -14 69 -18 60 -68 236 -76 269 -4 14 -129
457 -161 570 -23 77 -39 135 -59 205 -9 33 -22 80 -30 105 -7 25 -16 60 -20
78 -4 17 -7 32 -8 33 -11 6 -887 7 -891 1z m487 -417 c24 -66 61 -169 82 -230
21 -60 42 -114 46 -119 5 -5 4 -15 -2 -23 -9 -10 -51 -13 -171 -13 l-160 0 7
37 c3 20 29 107 56 192 28 86 51 161 53 166 7 30 39 116 41 113 2 -2 23 -57
48 -123z"/>
<path d="M4469 6007 c-4 -20 0 -1330 5 -1334 6 -7 389 -11 416 -5 14 3 16 41
17 290 2 412 2 422 11 422 4 0 73 -87 154 -193 323 -422 369 -483 386 -502 16
-19 29 -20 235 -20 l217 0 1 25 c0 14 2 239 2 502 1 262 5 480 9 484 4 4 39 7
78 8 l70 1 2 -519 3 -519 705 1 c388 0 711 1 718 1 9 1 12 41 12 165 0 122 -3
165 -12 168 -7 2 -223 3 -480 3 l-467 -1 -3 65 c-2 36 -2 81 0 99 l3 32 358 0
357 0 -2 143 c0 78 -2 145 -3 149 0 4 -159 7 -352 7 -193 0 -353 1 -354 3 -4
4 -7 94 -6 158 l1 45 385 -1 385 -1 0 36 c1 70 1 226 1 259 l-1 32 -922 0
-923 0 0 -321 c0 -176 -2 -341 -4 -366 -3 -45 -4 -46 -20 -26 -9 12 -130 171
-270 354 -140 184 -258 338 -263 343 -6 8 -447 21 -449 13z"/>
<path d="M7585 5855 c1 -86 5 -158 8 -162 4 -3 107 -7 229 -9 123 -1 226 -3
230 -3 5 -1 8 -229 7 -507 0 -278 2 -508 5 -511 6 -7 441 -7 452 0 5 3 9 222
9 511 l0 506 25 1 c14 1 123 1 243 1 l217 1 0 163 0 164 -714 0 -713 0 2 -155z"/>
<path d="M5000 4370 l-25 -6 2 -364 c1 -201 2 -503 3 -672 l0 -308 250 0 250
0 0 218 0 217 139 -137 c141 -139 193 -179 311 -238 147 -74 109 -71 744 -66
314 2 584 7 600 10 65 15 148 81 180 145 21 40 27 114 15 172 -13 61 -44 116
-190 341 -137 210 -202 324 -194 339 10 15 68 20 305 23 129 2 237 4 240 5 3
0 5 73 5 162 l0 161 -435 -4 c-420 -4 -437 -5 -491 -27 -67 -25 -140 -86 -163
-134 -8 -19 -17 -53 -19 -77 -8 -104 17 -176 138 -395 81 -147 161 -306 168
-335 3 -14 3 -31 -2 -38 -21 -34 -481 -36 -624 -3 -92 22 -113 67 -47 101 82
42 155 128 181 212 28 91 41 257 26 328 -30 142 -136 256 -297 317 -114 44
-88 42 -595 48 -236 3 -434 7 -440 9 -5 1 -21 0 -35 -4z m841 -369 c121 -21
166 -59 156 -132 -6 -49 -17 -63 -70 -88 -52 -25 -118 -32 -297 -35 l-140 -2
0 131 c0 73 3 134 6 138 9 9 279 0 345 -12z"/>
<path d="M1380 4356 c1 -17 39 -160 141 -521 11 -38 21 -77 23 -85 23 -92 200
-707 205 -712 6 -7 291 -12 478 -9 l61 1 27 118 c15 64 36 155 46 202 11 47
30 130 43 184 l23 100 16 -50 c14 -41 71 -254 82 -304 3 -16 40 -161 55 -220
l9 -35 228 2 c125 1 245 2 266 2 21 1 39 7 41 14 3 6 23 84 45 172 45 176 73
281 127 485 20 74 37 140 38 145 5 17 106 405 121 465 2 8 7 25 11 38 l6 22
-213 0 c-118 0 -223 -3 -234 -6 -17 -4 -31 -48 -95 -294 -41 -159 -78 -286
-82 -282 -9 10 -42 128 -113 412 -14 58 -31 120 -36 138 l-11 32 -274 0 c-151
0 -274 -1 -274 -3 0 -9 -112 -500 -124 -542 -8 -31 -16 -44 -20 -35 -3 8 -28
98 -56 200 -27 102 -62 229 -77 283 l-27 98 -228 -2 c-162 -1 -228 -5 -228
-13z"/>
<path d="M3606 4268 c-15 -57 -32 -116 -37 -133 -11 -34 -108 -390 -114 -419
-3 -10 -15 -58 -29 -105 -96 -342 -157 -574 -152 -578 4 -4 369 -7 463 -4 19
1 35 27 44 73 1 4 12 42 24 85 l23 78 242 0 c150 0 244 -4 249 -10 4 -5 22
-55 41 -110 18 -55 37 -104 41 -109 8 -9 486 -13 493 -4 2 1 -16 73 -41 158
-77 274 -94 334 -104 370 -10 38 -10 37 -34 120 -9 30 -18 62 -20 71 -2 9 -26
97 -54 195 -28 99 -65 231 -83 294 -18 63 -34 117 -36 120 -2 2 -203 6 -446 8
l-443 3 -27 -103z m519 -333 c25 -71 49 -137 52 -145 38 -103 73 -207 73 -217
0 -10 -37 -13 -154 -13 -85 0 -161 3 -169 6 -12 4 -10 20 13 95 16 49 28 91
28 92 1 1 3 9 6 17 30 92 66 211 66 218 0 13 31 85 34 81 2 -2 25 -62 51 -134z"/>
</g>
</svg>
